<svg width="39" height="39" fill="none" xmlns="http://www.w3.org/2000/svg"><path d="M19.5 0l2.53 1.897L24.995.79l1.894 2.533 3.154-.227 1.104 2.964 3.091.67.224 3.155 2.777 1.514-.674 3.09 2.237 2.236-1.517 2.775 1.517 2.775-2.237 2.235.674 3.09-2.777 1.515-.224 3.155-3.091.67-1.104 2.964-3.154-.227-1.894 2.533-2.963-1.107L19.5 39l-2.53-1.897-2.964 1.107-1.894-2.533-3.155.227-1.103-2.964-3.091-.67-.224-3.155L1.762 27.6l.674-3.09-2.238-2.236L1.716 19.5.198 16.725l2.238-2.235-.674-3.09L4.54 9.884l.224-3.155 3.091-.67 1.103-2.964 3.155.227L14.006.79l2.963 1.107L19.5 0z" fill="#78BC27"/></svg>